<svg xmlns="http://www.w3.org/2000/svg" xmlns:xlink="http://www.w3.org/1999/xlink" id="ei-sprite" style="display:none">
  
    <symbol id='heart-icon' viewBox='0 0 128 128'>
      
<path d="M90.8,15C70.7,15,64,31,64,31s-6.7-16-26.799-16C17.101,15,6,31,6,49.3c0,34.3,58,63.999,58,63.999
	S121.999,83.6,121.999,49.3C122.099,31,110.899,15,90.8,15z"></path>

    </symbol>
  
    <symbol id='remove-icon' viewBox='0 0 24 24'>
      
<path d="M13.416,12.001L23.708,1.708c0.391-0.389,0.391-1.022,0-1.414c-0.391-0.391-1.024-0.391-1.414,0L12.001,10.587L1.708,0.294
  c-0.391-0.391-1.024-0.391-1.414,0c-0.391,0.392-0.391,1.024,0,1.414l10.292,10.293L0.294,22.294c-0.391,0.392-0.391,1.024,0,1.414
  c0.195,0.195,0.451,0.293,0.707,0.293c0.256,0,0.512-0.098,0.707-0.293l10.293-10.293l10.293,10.293
  c0.195,0.195,0.451,0.293,0.707,0.293c0.256,0,0.512-0.098,0.707-0.293c0.391-0.39,0.391-1.022,0-1.414L13.416,12.001z"></path>

    </symbol>
  
    <symbol id='heart-empty-icon' viewBox='0 0 128 128'>
      
<path d="M90.8,15C70.7,15,64,31,64,31s-6.7-16-26.799-16C17.101,15,6,31,6,49.3c0,34.3,58,63.999,58,63.999
	S121.999,83.6,121.999,49.3C122.099,31,110.899,15,90.8,15z M90.6,91c-11.1,8.9-22.199,15.4-26.5,17.699
	C59.8,106.3,48.6,99.9,37.5,90.9C24.9,80.8,10,65.4,10,49.3C10,41,12.5,33.4,17.101,27.9C22,22.101,29,19,37.3,19
	c17.2,0,23,13.4,23.1,13.5l3.7,8.8l3.7-8.8C68,32,73.8,19,90.8,19c8.3,0,15.2,3.1,20.1,8.9c4.6,5.5,7.1,13.1,7.1,21.399
	C118.099,65.4,103.1,80.9,90.6,91z"></path>

    </symbol>
  
    <symbol id='nav-horizontal-icon' viewBox='0 0 24 24'>
      
	<path d="M3,9c-1.654,0-3,1.346-3,3s1.346,3,3,3s3-1.346,3-3S4.654,9,3,9z M3,14c-1.103,0-2-0.897-2-2s0.897-2,2-2s2,0.897,2,2
		S4.103,14,3,14z"></path>
	<path d="M12,9c-1.654,0-3,1.346-3,3s1.346,3,3,3s3-1.346,3-3S13.654,9,12,9z M12,14c-1.103,0-2-0.897-2-2s0.897-2,2-2s2,0.897,2,2
		S13.103,14,12,14z"></path>
	<path d="M21,9c-1.654,0-3,1.346-3,3s1.346,3,3,3s3-1.346,3-3S22.654,9,21,9z M21,14c-1.103,0-2-0.897-2-2s0.897-2,2-2s2,0.897,2,2
		S22.103,14,21,14z"></path>

    </symbol>
  
</svg>
